<svg version="1.2" xmlns="http://www.w3.org/2000/svg" viewBox="0 0 107 97" width="107" height="97"><defs><clipPath clipPathUnits="userSpaceOnUse" id="cp1"><path d="m-1132-151h1440v5875h-1440z"/></clipPath></defs><style>.a{fill:#fff}</style><g clip-path="url(#cp1)"><path class="a" d="m105.7 50.4c-0.1 0.2-0.2 0.4-0.3 0.7q0.2 0.1 0.4 0.2c0.1 0.3 0.5 0.6 0.2 1-0.2 0.4 0.4 0.8-0.1 1 0.1 0.8-0.4 1.3-0.7 1.9-0.4 0.4-0.4 1-0.9 1.4-0.4 0.4-0.7 0.9-1 1.4-0.2 0-0.5 0-0.8 0.1 0 0.2 0.1 0.3 0.1 0.6-0.1 0.1-0.2 0.2-0.4 0.4 0.1 0.3 0.2 0.6 0.3 1q-0.2 0.3-0.5 0.6c0.2 0 0.3 0.1 0.5 0.1-0.2 0.2-0.4 0.4-0.7 0.5q0.1 0.1 0.3 0.3c-0.8 0.3-1.5-0.4-2.3-0.1-0.5 0.4-0.9 1.1-1.6 1.4-0.3 0.1-0.1 0.6-0.6 0.6-0.1 0 0 0.5-0.4 0.4-0.2 0.5-0.6 0.8-1 1.1-0.3 0.3-0.6 0.6-0.8 1q-0.3 0.4-0.7 0.8c-0.2 0.3-0.4 0.5-0.6 0.8-0.1 0.2-0.1 0.6-0.3 0.7-0.2 0.2-0.4 0.3-0.4 0.7-0.3-0.2-0.4-0.3-0.6-0.3-0.5 0.2-0.9 0.4-1.4-0.2v-1.2c-0.9-0.5-1.8-0.9-2.2-2 0-0.4-0.2-0.9 0.2-1.4-0.5-1-0.1-1.9 0.4-2.8 0.6-1 1.4-1.9 2.4-2.8-0.6-0.8-1.2-1.6-1.6-2.4-0.4-0.5-0.7-1.2-0.7-1.8 0-0.7-0.3-1.4 0.1-2.1 0.2-0.3 0-0.7 0.2-1.1 0.2-0.3 0.2-0.6 0.4-0.8 0.1-0.1 0.1-0.3 0.2-0.7 0.2-0.1 0.7-0.4 0.8-0.7 0.1-0.5 0.7-0.3 0.7-0.9 0.2 0.1 0.3 0.2 0.4 0.3q0.4-0.1 0.8-0.3c0.1 0.2 0.2 0.4 0.3 0.6q-0.3 0.6-0.7 1.4c0.6-0.1 1-0.1 1.4-0.1 0.1 0.1 0.2 0.2 0.3 0.3-0.2 0.3-0.3 0.6-0.5 1 0.3 0 0.6 0 0.9 0.1q-0.1 0.6-0.2 1.2-0.2 0.2-0.5 0.4 0.2 0.1 0.2 0.1 0.2-0.1 0.4-0.2c0.1 0.1 0.1 0.2 0.2 0.3-0.3 0.2-0.6 0.3-1 0.5 0.2 0.1 0.3 0.1 0.5 0.2-0.2 0.3-0.5 0.5-0.8 0.8 0.4 0.3 0.8 0.6 1.2 0.9 0.5 0.1 1-0.1 1.4-0.5 1-0.9 2.1-1.6 3.1-2.5 1-0.9 2.1-1.8 2.8-3 0.2-0.3 0.5-0.5 0.8-0.7h1.2c0 0.1 0.1 0.2 0.2 0.3-0.1 0.4-0.2 0.8-0.4 1.3 0.4-0.1 0.7-0.2 1-0.3 0.1 0.1 0.2 0.3 0.4 0.5z"/><path class="a" d="m34 74.2c-0.4 0.1-0.7 0.2-1.1 0.4 0.1-0.2 0.2-0.4 0.2-0.5-0.2-0.4-0.5-0.8-1-0.7-0.1-0.2-0.1-0.3-0.1-0.4h-1c-0.1-0.1-0.2-0.1-0.2-0.2-0.1-0.4-0.1-1-0.4-1.3-0.3-0.4-0.2-0.9-0.2-1.3 0-0.3 0.1-0.7 0.2-1q0.5-1.8 1.4-3.5 0.5-1 1.2-2c0.4-0.6 1-1.2 1.5-1.8q-0.2-0.1-0.5-0.2c-1.5-0.9-2.8-2-4-3.2-0.5-0.6-0.5-1.4-0.7-2.1-0.1-0.3 0-0.6 0-0.9 0.3-0.6 0.9-0.6 1.5-0.9q0.3 0.5 0.6 1.1 0.1 0 0.3-0.1c0.1 0 0.2 0.1 0.2 0.2 0.3 0.7 0.8 1 1.4 1.3 1.2 0.6 2.4 1.2 3.6 1.8 0.3-0.3 0.6-0.8 1.1-1 0.4-0.2 0.4-0.9 1-0.8-0.1-0.1-0.1-0.2-0.2-0.3 0.2-0.2 0.4-0.3 0.6-0.5 0.1-0.2 0.2-0.4 0.4-0.7 0.2 0 0.3-0.1 0.6-0.1-0.1-0.1-0.2-0.2-0.3-0.3 0.5-0.1 0.6-0.6 0.9-0.8 0.3-0.3 0.5-0.7 0.8-1.1 0.1 0.1 0.1 0.1 0.3 0.2q0.1-0.2 0.2-0.4c0 0 0.1 0.1 0.2 0.2 0.2-0.8 0.6-1.4 1.1-2 0.5-0.6 1-1.3 1.8-1.6q0.1 0.1 0.4 0.3c-0.4 0.6-0.7 1.2-1.3 1.5v0.9c0.1 0 0.3 0 0.3-0.1 0.2-0.2 0.2-0.5 0.3-0.6 0.5-0.5 1-0.8 1.5-1.3 0.1 0.5 0.1 0.7 0.1 1q-0.2 0.1-0.4 0.2c0 0 0 0.1 0.1 0.1 0.2 0 0.5-0.1 0.8-0.2q0.2 0.3 0.4 0.6-0.1 0.1-0.2 0.2c0 0.3 0.4 0.6 0.1 1q-0.1-0.1-0.3-0.2c0 0-0.1 0.1-0.1 0.2 0.1 0.1 0.2 0.2 0.3 0.4-0.1 0.6-0.6 0.9-1 1.3-0.4 0.4-0.8 0.7-1.4 1.1q0.3 0.2 0.6 0.4c-0.1 0.2-0.2 0.4-0.2 0.5q0 0.1 0.2 0.3c-0.3 0-0.5 0.1-0.8 0.1 0.1 0.2 0.2 0.4 0.3 0.6h-0.8q-0.2 0.4-0.4 0.8c0.1 0.1 0.2 0.2 0.3 0.3-0.2 0-0.4 0.1-0.7 0.1q0.1 0.3 0.2 0.6-0.3 0-0.7 0.1c0.1 0.2 0.2 0.4 0.3 0.7-0.3-0.1-0.5-0.2-0.8-0.3q-0.2 0.3-0.3 0.7c0 0.1 0 0.2 0.1 0.2 0.1 0 0.2 0 0.3 0.1 0.3 0.2 0.4 0.6 0.7 0.8 0.4 0.2 0.6 0.6 0.8 0.9 0.2 0.3 0.4 0.5 0.3 0.9 0 0.1 0.1 0.2 0.2 0.4q-0.1 0.1-0.3 0.4c-0.3 0.1-0.5 0.5-1 0.2-1-0.3-2-0.7-3.1-0.8 0 0-0.1-0.1-0.2-0.2-0.3 0.4-0.6 0.7-1 1.1 0 0.1 0 0.3 0 0.4-0.2 0.1-0.5 0.1-0.8 0.2 0.2 0.3 0.4 0.5 0.6 0.8-0.2-0.1-0.4-0.1-0.6-0.2q-0.1 0.1-0.3 0.3c0.1 0.4 0 0.6-0.4 0.8q-0.2 0.7-0.3 1.3c-0.2 0.1-0.3 0.1-0.5 0.2l0.3 0.2c-0.4 0.3-0.7 0.5-1 0.8-0.2 0.3-0.3 0.7-0.5 1.1q0 0 0.2 0.3-0.4 0.4-0.7 0.7c0 0.1 0.1 0.2 0.2 0.4q-0.2 0.3-0.5 0.6v0.6c-0.3 0.3-0.5 0.5-0.7 0.7z"/><path class="a" d="m61.7 78.7c0.6 0.7 0.6 0.7 1.2 0.3 0 0.2 0 0.4 0.1 0.6 0 0.1 0.1 0.2 0.2 0.3q-0.2 0.1-0.2 0.2c0.1 0 0.3 0.1 0.5 0.2q-0.4 0.6-0.7 1.1c0.3 0.5-0.4 0.6-0.5 0.9-0.1 0.5-0.7 0.6-0.7 1.1 0 0.6-0.6 0.7-0.9 1-0.2 0.3-0.6 0.5-0.6 0.9 0 0.1 0.1 0.2 0.2 0.4q-0.5 0.3-0.9 0.5l-0.7 0.4c-0.2 0.2-0.4 0.5-0.7 0.8v0.2c-0.7 0.6-1.4 1.1-2.2 1.6 0.2 0.2 0.4 0.2 0.6 0.3q-0.5 0.7-1 1.4c0.9 0.3 1.7 0.6 2.6 0.8-0.1 0.2-0.2 0.4-0.3 0.5 0.4 0.2 0.7 0.3 1.1 0.4v0.5q0.4 0.4 0.7 0.7 0.1 0.4 0.1 0.7l0.4 0.5-1 0.8c-0.3 0.3-0.5 0.2-0.8 0.1q-0.2-0.1-0.3-0.1c-1.2 0-2.2-0.4-3.3-0.8-0.8-0.3-1.5-0.7-2.4-1-0.2 0.2-0.5 0.4-0.6 0.8q-0.7 0.2-1.4 0.3c-0.2-0.2-0.4-0.4-0.6-0.6q0.1-0.1 0.3-0.2c-0.1-0.3-0.2-0.5-0.3-0.7q-0.5 0.1-1 0.2-0.2-0.5-0.5-1-0.1 0.2-0.1 0.2c-0.2-0.3-0.5-0.5-0.8-0.9 0.1-0.8-0.4-1.7-0.3-2.6 0-0.2-0.1-0.5-0.3-0.7-0.7-0.6-0.7-1.5-1-2.3-0.1-0.3-0.3-0.6-0.3-1 0-0.6 0-1.1 0-1.7 0.2-0.9 0.4-1.8 1.4-2.1 0.3-0.1 0.7-0.2 1.1-0.2v1.7c0.4-0.2 0.7-0.4 1-0.6q0.1 0.2 0.2 0.5 0.1-0.1 0.2-0.1v1q0.3-0.1 0.5-0.2c0.4 0.4 0.4 0.9 0.4 1.5 0.1 0 0.2 0.1 0.5 0.2q-0.2 0.3-0.3 0.7c0.1 0 0.2 0 0.2 0 0.1-0.1 0.1-0.2 0.2-0.2 1-0.4 1.5-1.4 2.5-1.8 0.2-0.7 0.9-0.8 1.3-1.3 0.5-0.5 1.1-0.8 1.7-1.2 0.5-0.4 0.8-1.1 1.5-1.3q0.6-1.2 1.9-1.9c-0.1-0.6 0.7-0.6 0.7-1.2h1q0.1 0.1 0.3 0.3c-0.5 0.2-0.7 0.7-1 1.2 0.7 0.1 1.1-0.7 1.7-0.3-0.2 0.1-0.3 0.1-0.6 0.2z"/><path class="a" d="m59.1 66.8c0-0.5 0.7-0.6 0.4-1.1q-0.2 0.1-0.3 0.2 0 0-0.1 0c0-0.6 0-1.1 0.4-1.6q0.6-0.7 1.3-1.5c0.1-0.1 0.2-0.3 0.3-0.6-0.2-0.5-0.5-1-0.7-1.6-0.3-0.6-0.3-1.2-0.6-1.8-0.1-0.3 0.3-0.9 0.2-1.2-0.1-0.5-0.4-0.8 0-1.2 0-1.1 0.8-1.8 1.4-2.6h1.9c0.1 0.1 0.2 0.2 0.4 0.4q-0.4 0.5-0.9 1.1 0.1 0.1 0.2 0.5c0.2 0 0.4 0 0.4 0 0.3-0.3 0.7-0.2 1-0.2 0.2 0.2 0.3 0.4 0.4 0.7-0.2 0.2-0.4 0.4-0.6 0.7 0.4 0.1 0.6 0.1 1 0.2v1.1c0.8 0 0.8-0.9 1.5-0.9 0.3-0.5 0.7-0.8 1.1-1.1q0.6-0.7 1.3-1.3 0.5-0.6 1.1-1.2c0.3-0.5 0.6-1 0.8-1.3 0.5-0.1 0.8-0.2 1.1-0.4 0.1 0.2 0.3 0.4 0.3 0.5 0.1 0.2-0.1 0.4-0.1 0.5-0.1 0.2-0.2 0.4-0.2 0.7q0.4-0.2 1-0.5c0.2 0.4 0.4 0.8 0.7 1.4 0 0 0 0.2 0 0.5 0 0.1 0.1 0.3 0.2 0.5-0.1 0.1-0.2 0.2-0.2 0.4q0.1 0.1 0.2 0.2c-0.6 1.1-1.2 2.2-1.9 3.2-0.7 0.8-0.6 0.9-1 1.1q0.1 0.2 0.2 0.3-1.3 1.5-2.7 3v0.3c0.7 0.5 1.4 0.9 2.1 1.4-0.1 0.2-0.2 0.3-0.2 0.5 0.2 0.2 0.4 0.7 0.9 0.5q0.2 0.3 0.3 0.6-0.1 0.1-0.2 0.4c0.3 0.3 0.5 0.5 0.8 0.8-0.1 0.3-0.2 0.5-0.3 0.7q0.1 0.2 0.2 0.5c0 0 0 0.1-0.1 0.2-0.1 0-0.2 0-0.3 0.1-0.5 0.6-0.6 0.6-1.2 0.4-0.8-0.3-1.7-0.4-2.4-0.8-0.9-0.5-1.8-1.3-2.8-1.9-0.4 0.3-0.9 0.7-1.4 1.2-0.4 0.4-1 0.8-1.8 1.1 0.2-0.3 0.2-0.4 0.3-0.6-0.5 0.1-0.9 0.2-1.3 0.3l-0.1-0.2q0.4-0.3 0.8-0.6l-0.4-0.4h-0.8q-0.1-0.3-0.3-0.8h-1c-0.1-0.4-0.2-0.7-0.3-0.8z"/><path class="a" d="m64 44.6c-0.4 0.1-0.7 0.2-1.2 0.3-0.5-0.3-1.1-0.8-1.7-1.2-0.7-0.5-1.3-1.2-2.2-1.5-0.2-0.1-0.4-0.2-0.6-0.3-0.4-0.5-0.4-1.4-1.3-1.3-0.5-0.4-0.5-1-1.2-1.1-0.2-0.4-0.3-0.8-0.6-1-1.2-1.2-2.1-2.5-2.9-4.2 0-0.5 0-1.2-0.1-1.9-0.2-1.1 0.4-2 1.3-2.6 0.3-0.1 0.4-0.5 0.8-0.5 0.3 0.1 0.6-0.1 1-0.2q0.2 0.2 0.5 0.4c-0.3 0.6-0.9 0.9-1 1.6 0.7 0.2 1.1-0.5 1.8-0.6 0.1 0 0.2 0.2 0.4 0.3-0.3 0.4-0.5 0.6-0.8 1.1 0.5-0.1 0.8-0.1 1-0.3 0.3-0.4 0.8-0.6 1.1-1.1 0.3-0.4 0.8-0.8 1.2-1.1 0.7-0.4 1.3-1 1.9-1.5 0.9-0.8 1.8-1.6 2.8-2.2 0.4-0.3 0.7-0.7 1.1-1 0.3-0.4 0.8-0.5 0.8-1h1.6v1c-0.1 0-0.2 0.2-0.4 0.4q0.3-0.1 0.6-0.1c0.2-0.1 0.4-0.1 0.7-0.2 0 0.7 0 1.3 0.5 1.8-0.1 0.2-0.2 0.3-0.3 0.4 0.2 0.1 0.4 0.2 0.7 0.4-0.3 0.1-0.5 0.1-0.6 0.2 0 0.1 0.1 0.3 0.1 0.4 0.1 0.2 0.1 0.3 0.1 0.5-0.5 0.5-0.9 1.1-1.3 1.7q-0.2 0-0.6 0.1c0.1 0.1 0.2 0.2 0.2 0.3q-0.1 0.2-0.2 0.5c-1 0-1 1-1.6 1.4q0.2 0.2 0.2 0.3-0.6 0.6-1.2 1.2c0 0-0.1 0 0 0q-0.3 0.3-0.6 0.6-0.1-0.1-0.2-0.2v0.6c-0.1-0.1-0.2-0.1-0.4-0.3 0.1 0.3 0.1 0.4 0.1 0.7q-0.4 0.5-1 1.3-0.2-0.2-0.3-0.3-0.6 0.7-1.3 1.4c0.2 0.1 0.3 0.2 0.6 0.3q-0.3 0.4-0.6 0.7c0 0.1 0 0.2 0.1 0.2 0.7 0.8 1.5 1.5 2 2.3 0.6 1 1.4 2 1 3.3z"/><path class="a" d="m79.7 28.3q0.1-0.1 0.2-0.2-0.1-0.1-0.1-0.1c-0.3-0.3-0.7-0.5-0.9-0.8-0.3-0.2-0.5-0.4-0.8-0.7-0.3-0.3-0.6-0.7-0.6-1.1-0.1-0.8-0.1-1.5 0-2.2 0.3-1.3 1-2.3 1.9-3.2 1.2-1.1 2.3-2.3 3.5-3.5-0.4-0.4-0.5-1.1-1.2-1.3q-0.4-0.9-0.9-1.7c-0.3-0.6-0.2-1.2-0.2-1.7q0-0.7 0-1.3 0.5-0.7 1.1-1.4h1.9c-0.3 0.5-0.6 0.9-0.8 1.3 0.7 0.6 0.9-0.5 1.5-0.2 0.4 0.5-0.3 0.8-0.5 1.3 0.4-0.1 0.7-0.2 1-0.3 0.2 0.6 0.1 1-0.2 1.5 0.1 0.1 0.3 0.1 0.4 0.2 0.2 0.2-0.1 0.2-0.1 0.4q0.2 0.4 0.6 1c1.9-1.9 4.3-3.2 5.7-5.5h1.2c-0.1 0.4-0.2 0.7-0.3 1.2 0.3-0.1 0.6-0.2 0.9-0.4v0.9c0.2 0.1 0.3 0.1 0.4 0.1q0 0.1 0 0.2c0.1 0.1 0 0.2 0.1 0.4 0.2 1.1-0.4 2.1-1 2.9-0.7 1-1.4 1.9-2.2 2.8 0.5 0.7 1.4 1 2.2 1.7q0 0.1 0.1 0.4c0.2 0.3 0.5 0.5 0.6 0.9 0.2 0.7 0.7 1.3 0.4 2.2-0.1 0.1-0.3 0.2-0.5 0.2q-0.3 0.2-0.6 0.3c-0.3-0.3-1-0.2-0.9-0.8-0.7-0.2-1.3-0.4-1.9-0.6q-0.2-0.3-0.4-0.6h-1.2q0-0.2-0.1-0.4c-0.5-0.4-0.8 0.1-1.1 0.1-0.4 0.5-0.7 0.8-1 1.1-0.1 0-0.1-0.1-0.3-0.2q-0.2 0.3-0.4 0.7c0-0.1 0 0 0.1 0.1-0.5 0.1-0.6 0.7-0.8 1.1-0.2-0.1-0.3-0.2-0.5-0.3q0 0.3-0.1 0.6-0.1 0-0.3 0.1c-0.1 0.5-0.1 1-0.8 0.9-0.3 0.3-0.6 0.5-0.6 0.8 0.1 0.7-0.5 1-0.7 1.5 0 0.7 0 0.7 0.2 1.2q-0.7 0.5-1.7 0.8-0.1-0.2-0.3-0.4z"/><path class="a" d="m13.6 15.5c-0.2 0.1-0.4 0.1-0.6 0.1 0.1 0.2 0.2 0.2 0.3 0.4-0.3 0.5-0.8 0.8-1.2 1.3l0.2 0.1q-0.4 0.4-0.8 0.7c-0.2 0.3 0.1 0.7-0.3 1q0.6 0.4 1.1 0.8c1.2 0.8 2.5 1.5 3.5 2.6 0.5 0.6 1.1 1.2 1.1 2.1 0 0.2 0.1 0.3 0.3 0.6-0.4 0.2-0.7 0.4-1.1 0.6-2.3-1.3-4.6-2.5-6.7-4.2-0.2 0.1-0.5 0.2-0.6 0.3-0.2 0.7-0.7 1.2-1.2 1.7 0 0 0 0.2 0 0.3-0.3 0-0.4 0-0.7 0.1 0.1 0.1 0.1 0.3 0.2 0.6-0.5 0.3-0.8 0.9-1 1.5-0.1 0.4-0.4 0.8-0.8 1.2v2.5q-0.3 0-0.6 0 0 0.2-0.1 0.4h-0.8q-0.2-0.5-0.4-1.1-0.3 0.1-0.7 0.3 0-0.2-0.1-0.4c-0.1 0-0.1-0.1-0.2-0.1-0.5 0.1-0.8-0.3-0.9-0.6-0.2-1-0.9-2.1-0.2-3.2 0-1.1 0.7-1.9 1.1-2.9 0.1-0.3 0.6-0.3 0.5-0.8-0.1-0.2 0.3-0.6 0.5-0.9 0.2-0.2 0.4-0.5 0.6-0.8 0.3-0.2 0.6-0.5 0.8-0.8 0.2-0.2 0.4-0.5 0.6-0.8-1.4-1-2.3-2.5-3.2-3.8-0.3-1.4-0.9-2.6-0.7-4.2 0.4-0.4 0.8-0.8 1.2-1.3 0.5 0.1 1-0.2 1.5 0.3q-0.5 0.6-0.9 1.1 0.1 0.2 0.2 0.3c0.6 0.1 0.9-0.8 1.5-0.6q0.2 0.3 0.3 0.6-0.3 0.2-0.7 0.4 0.3 0.2 0.4 0.4c0.3-0.4 0.6-0.4 1 0.1 0 0.2 0.2 0.6-0.2 0.9 0.1 0.1 0.3 0.2 0.5 0.3q-0.2 0.3-0.5 0.6c0.2 0.1 0.3 0.1 0.6 0.2-0.3 0.1-0.4 0.1-0.6 0.2 0 0.2 0 0.4 0.1 0.6 0.4 0.5 0.9 1.1 1.4 1.7 0.3-0.2 0.5-0.4 0.7-0.6 1.2-1.2 2.3-2.6 3.8-3.4 0-0.4 0.4-0.4 0.6-0.6 0.3-0.3 0.5-0.5 0.6-0.7h0.8c-0.3 0.5-0.9 0.8-0.7 1.6 0.5-0.3 0.9-0.6 1.5-1 0 0.4-0.1 0.6-0.1 0.9 0.2 0.1 0.5 0.3 0.8 0.4q-0.1 0.3-0.2 0.5 0.2 0.1 0.3 0.1c0 0 0.1 0.1 0 0.2-0.2 0.3-0.6 0.7-0.8 1.1-0.2 0.5-0.7 0.7-1 1.1z"/><path class="a" d="m34.3 27.1c0.9-1.1 1.6-2.1 2.4-3 0.7-0.9 1.3-1.8 1.8-2.8 0-0.1-0.1-0.2-0.2-0.3q0.2-0.3 0.5-0.7h0.8c0.3 0.3 0.5 0.7 0.8 0.8 0.4 0.1 0.5 0.4 0.6 0.7 0.6 0.8 0.9 1.6 0.5 2.6q-0.4 1-0.8 2c0 0.2-0.1 0.4-0.2 0.7l-0.6 0.5v0.8c-0.4 0.8-0.8 1.4-1.2 2.2q0.8 0.5 1.6 1.1c1.1 0.6 1.9 1.5 2.5 2.7 0.1 0.2 0.1 0.5 0.2 0.9 0 0.1-0.1 0.3-0.2 0.5-0.2 0.1-0.5 0.2-0.7 0.3-0.5-0.1-1-0.3-1.4-0.5-0.5-0.2-0.9-0.4-1.3-0.6-0.1-0.7-0.9-0.4-1.2-0.8-0.2-0.4-0.8-0.6-1.3-0.8-1.5 1.5-2.7 3.1-3.9 4.8-0.1 0.2-0.1 0.4-0.1 0.6-0.5 0.4-1.1 0.3-1.6-0.1v-0.3c-0.6-0.4-1.3-0.8-2-1.2-0.3-0.4-0.1-1-0.3-1.5-0.3-0.5-0.1-1-0.2-1.4 0.8-1.6 1.7-3.1 2.9-4.4v-0.7c-0.7-0.5-1.1-1.3-1.6-2.1-0.2-0.3-0.2-0.6-0.3-0.9-0.1-0.6-0.3-1.3-0.3-1.9 0-1.3 0.8-2.2 2-2.7 0.7-0.2 1.5-0.1 2.3-0.2-0.4 0.9-1.5 0.9-2.1 1.6 1.1 0 1.7-1 2.8-0.8q-0.1 0.4-0.1 0.8c0.2 0 0.5 0.1 0.7 0.2v1.5c-0.2 0.5-0.6 1-0.8 1.5-0.1 0.2 0 0.4 0 0.9z"/><path class="a" d="m53.3 13c-0.4 0.5-0.8 1-1.2 1.6v1.4c-0.4 0.2-0.8 0.3-1.2 0.5-0.5-0.5-0.7-1.2-0.9-1.8-0.2 0.1-0.4 0.2-0.7 0.3-0.2-0.4-0.5-0.7-0.7-1-0.4-1-0.4-2.1-0.3-3.2 0.2-0.4 0.3-0.8 0.5-1.3-0.3 0-0.5 0-0.7-0.1q-1.1-1.1-2.1-2.3c-0.3-0.4-0.7-0.9-0.9-1.4-0.2-0.7-0.2-1.6-0.3-2.4 0.4-0.5 0.6-1.1 1.1-1.5 0.4-0.3 1-0.5 1.6-0.8q0.2 0.2 0.4 0.5c-0.1 0-1.2 1.1-1.2 1.1q0.1 0.1 0.3 0.3c0.5-0.4 1-0.9 1.8-0.6-0.2 0.3-0.3 0.5-0.6 0.9 0.4-0.1 0.6-0.2 0.9-0.3q0.2 0.3 0.4 0.7c-0.3 0.3-0.5 0.5-0.8 0.8 0.2 0.1 0.3 0.1 0.4 0.1-0.2 0.5-0.1 1.1-0.7 1.3 0.6 0.8 1.3 1.2 2.1 1.7 2.5-2 4.9-4.1 7.4-6.1h1.1c-0.2 0.4-0.4 0.7-0.5 1 0.3 0.2 0.6 0 0.8-0.2 0.9 0.8 1.1 1.8 0.9 2.9q-0.5 0.6-1.1 1.3c0.1 0.1 0.1 0.1 0.3 0.3q-0.3 0-0.6 0 0.1 0.2 0.2 0.3h-0.4c-0.8 1.4-2.1 2.4-3.1 3.8 1.4 0.7 2.8 1.2 4.2 2.1q0.1 0.3 0.2 0.7 0.2-0.3 0.4-0.5c0.5 0.1 0.5 0.8 1 1 0.4 0.2 0.7 0.7 1 1.1v1.4q-0.2 0.1-0.4 0.4c-1.2-0.2-2.1-0.8-3.2-1.4 0 0-0.1 0.1-0.1 0.1-0.8-0.1-1.2-0.9-2-0.8-0.4-0.5-1.1-0.6-1.6-0.9-0.5-0.3-1-0.6-1.7-1z"/><path class="a" d="m86.2 31.1c0.3 0.1 0.5 0.2 0.7 0.3 0 0.4-0.1 0.8-0.2 1.2 0.2 0.4 0.4 0.9 1 1.1 0.2-0.4 0.4-0.8 0.9-1 0.3-0.1 0.5-0.6 0.8-1 0.3-0.3 0.7-0.6 0.9-1.1 0.2-0.3 0.6-0.6 0.9-1 0.3-0.3 0.5-0.7 0.7-1.1h1.3c0 0.3 0.1 0.7-0.3 1q0.6 0.1 0.9 0.1 0.2 0.8 0.3 1.5c-0.1 0-0.3 0.1-0.4 0.1q0 0.2 0 0.3c0.3 0.8 0.3 1.1-0.3 1.7-0.3 0.2-0.4 0.6-0.3 0.9 0.2 0.4-0.3 0.2-0.1 0.6-0.2-0.2-0.3-0.3-0.4-0.4v0.6c-0.2 0.1-0.5 0.1-0.7 0.1v0.7c-0.3 0.3-0.5 0.5-0.7 0.7q0.6 0.5 1.1 1v0.8q0.4 0.4 0.8 0.8c-0.1 0.1-0.2 0.2-0.3 0.4q0.2 0.4 0.5 0.9c-0.2 0.5-0.5 1-0.7 1.5h-0.9q-1.7-1-3.3-1.9-0.2 0.4-0.4 0.7c-0.2-0.1-0.4-0.1-0.6-0.3v1.1c-0.4-0.1-0.6-0.2-1.1-0.4 0.2 0.2 0.3 0.3 0.4 0.5-0.2 0.1-0.5 0.4-0.8 0.7-0.1-0.4-0.1-0.7-0.2-1 0.2-0.1 0.3-0.1 0.5-0.2q0-0.1 0-0.3-0.2 0-0.4-0.1c0.1-0.2 0.1-0.4 0.2-0.7-0.2 0.1-0.3 0.2-0.3 0.3q-0.7-0.2-1.4-0.3-0.1-0.2-0.3-0.5 0.1-0.5 0.3-1.1 0.3 0 0.7 0.1 0.1-0.1 0.1-0.1-0.5-0.3-0.9-0.5 0.3-0.4 0.5-0.9c-0.8-1.3-1.6-2.5-2-3.8-0.3-1 0-1.9 0.2-2.8 0.1-0.8 0.7-1.3 1.3-1.6 0.1-0.1 0.2-0.1 0.4-0.2h1.1q0.3 0.2 0.4 0.4c-0.2 0.2-0.4 0.5-0.6 0.6v0.7q0.4-0.1 0.8-0.2c0.2 0.1 0.3 0.2 0.5 0.4-0.2 0.3-0.4 0.4-0.6 0.7z"/><path class="a" d="m18.3 42.7c0.1 0.1 0.2 0.2 0.4 0.3q-1 0.9-2.1 1.8 0.1 0.1 0.1 0.1c0.1 0 0.3 0 0.4-0.1 0.2-0.2 0.4-0.4 0.6-0.4q0.8-0.5 1.5-0.9c0.4 0.4 0.1 0.6-0.1 1 0.3-0.1 0.4-0.1 0.6-0.2q0.2 0.1 0.3 0.3 0 0.7 0 1.4-0.2 0.1-0.4 0.4c0 0 0 0.1 0.1 0.1q0.4 0.3 0.8 0.6c0.3 0.2 0.7 0.2 0.7 0.7 0 0 0.1 0.1 0.1 0.1 0.3 0.2 0.5 0.3 0.7 0.5 0.2 0.2 0.3 0.5 0.5 0.8 0 0.2 0 0.5 0 0.8q-0.3 0.3-0.5 0.6-2.2-0.8-4.3-1.6-0.4 0.3-0.9 0.6-0.1-0.1-0.1-0.1c-0.3 0.3-0.6 0.6-0.9 1q-0.1 0.1-0.1 0.4c-0.6 0.6-1.2 1.2-1.7 1.7-0.2 0.8-0.1 1.6-1.2 1.7-0.2-0.3-0.9-0.4-0.8-1.2q-0.3-0.1-0.7-0.2c-0.1 0.1-0.2 0.1-0.3 0.2-0.3-0.3-0.5-0.6-0.9-1-0.1-0.7-0.2-1.6-0.3-2.5 0.9-1 1.9-2 2.8-3.1-0.4-0.2-0.7-0.4-1.1-0.7-0.3-0.3-0.6-0.6-1-1q0.2-0.4 0.3-0.9c-0.2-0.1-0.3-0.1-0.5-0.2v-0.7q0.1-0.1 0.3-0.3c0.3 0 0.6-0.1 1.1-0.2 1.1 0.7 2.3 1.3 3.5 2 1.2-0.4 1.9-1.5 3.1-1.8z"/></g></svg>